name rise43.5482peak65.4966fall89.1036.mot
datacolumns 19
datarows 32
range 22.57324700000000 22.62490900000000
endheader
time	ground_force1_vx	ground_force1_vy	ground_force1_vz	ground_force1_px	ground_force1_py	ground_force1_pz	ground_force2_vx	ground_force2_vy	ground_force2_vz	ground_force2_px	ground_force2_py	ground_force2_pz	ground_torque1_x	ground_torque1_y	ground_torque1_z	ground_torque2_x	ground_torque2_y	ground_torque2_z	
22.57324700000000	-2.69937300000000	40.21844200000000	-8.66178300000000	0.25119700000000	0.00000000000000	0.12092500000000	-45.60195100000000	816.35951100000000	-62.13637400000000	0.09424400000000	0.00000000000000	-0.09469400000000	0.00000000000000	-4.80571200000000	0.00000000000000	0.00000000000000	-18.56320500000000	0.00000000000000	
22.57492000000000	-2.80739300000000	47.13802000000000	-9.68552500000000	0.25909000000000	0.00000000000000	0.12171400000000	-46.28910700000000	814.56455700000004	-62.16487400000000	0.09340900000000	0.00000000000000	-0.09463200000000	0.00000000000000	-5.49206200000000	0.00000000000000	0.00000000000000	-18.54977200000000	0.00000000000000	
22.57657500000000	-2.82033800000000	54.14076300000000	-10.59510500000000	0.26610400000000	0.00000000000000	0.12243500000000	-46.98549900000000	812.61703399999999	-62.16549000000000	0.09257700000000	0.00000000000000	-0.09456800000000	0.00000000000000	-6.13337800000000	0.00000000000000	0.00000000000000	-18.53607900000000	0.00000000000000	
22.57824500000000	-2.72939900000000	61.13480900000000	-11.36709600000000	0.27237800000000	0.00000000000000	0.12309800000000	-47.69038700000000	810.51318800000001	-62.13737000000000	0.09174800000000	0.00000000000000	-0.09450000000000	0.00000000000000	-6.71372000000000	0.00000000000000	0.00000000000000	-18.52204400000000	0.00000000000000	
22.57991500000000	-2.52987400000000	68.05017500000000	-11.98618800000000	0.27802100000000	0.00000000000000	0.12371300000000	-48.40294900000000	808.24928999999997	-62.07971200000000	0.09092300000000	0.00000000000000	-0.09442900000000	0.00000000000000	-7.22165200000000	0.00000000000000	0.00000000000000	-18.50757800000000	0.00000000000000	
22.58157200000000	-2.22099500000000	74.84091500000000	-12.44524100000000	0.28312200000000	0.00000000000000	0.12428500000000	-49.12228800000000	805.82164999999998	-61.99176700000000	0.09010200000000	0.00000000000000	-0.09435500000000	0.00000000000000	-7.65048200000000	0.00000000000000	0.00000000000000	-18.49257800000000	0.00000000000000	
22.58324500000000	-1.80548100000000	81.48494599999999	-12.74467000000000	0.28775400000000	0.00000000000000	0.12482200000000	-49.84742700000000	803.22662700000001	-61.87284100000000	0.08928400000000	0.00000000000000	-0.09427800000000	0.00000000000000	-7.99807100000000	0.00000000000000	0.00000000000000	-18.47693300000000	0.00000000000000	
22.58491500000000	-1.28887600000000	87.98194200000000	-12.89131300000000	0.29197700000000	0.00000000000000	0.12532700000000	-50.57730800000000	800.46063900000001	-61.72230200000000	0.08847000000000	0.00000000000000	-0.09419800000000	0.00000000000000	-8.26629300000000	0.00000000000000	0.00000000000000	-18.46052000000000	0.00000000000000	
22.58657400000000	-0.67878100000000	94.34980500000000	-12.89697500000000	0.29583900000000	0.00000000000000	0.12580500000000	-51.31079900000000	797.52017899999998	-61.53957900000000	0.08766000000000	0.00000000000000	-0.09411400000000	0.00000000000000	-8.46026800000000	0.00000000000000	0.00000000000000	-18.44320500000000	0.00000000000000	
22.58824100000000	0.01594800000000	100.62024900000000	-12.77680900000000	0.29938300000000	0.00000000000000	0.12625800000000	-52.04668900000000	794.40181900000005	-61.32416700000000	0.08685400000000	0.00000000000000	-0.09402700000000	0.00000000000000	-8.58744700000000	0.00000000000000	0.00000000000000	-18.42484400000000	0.00000000000000	
22.58993000000000	0.78596300000000	106.83403400000000	-12.54772100000000	0.30264300000000	0.00000000000000	0.12669000000000	-52.78369300000000	791.10223199999996	-61.07562500000000	0.08605300000000	0.00000000000000	-0.09393600000000	0.00000000000000	-8.65667800000000	0.00000000000000	0.00000000000000	-18.40528400000000	0.00000000000000	
22.59157800000000	1.62208800000000	113.03627500000000	-12.22689500000000	0.30565000000000	0.00000000000000	0.12710100000000	-53.52045200000000	787.61819700000001	-60.79358700000000	0.08525600000000	0.00000000000000	-0.09384200000000	0.00000000000000	-8.67731000000000	0.00000000000000	0.00000000000000	-18.38436000000000	0.00000000000000	
22.59324300000000	2.51585100000000	119.27221200000000	-11.83056300000000	0.30842900000000	0.00000000000000	0.12749600000000	-54.25553700000000	783.94661499999995	-60.47775500000000	0.08446400000000	0.00000000000000	-0.09374500000000	0.00000000000000	-8.65842500000000	0.00000000000000	0.00000000000000	-18.36189800000000	0.00000000000000	
22.59491300000000	3.45986300000000	125.58367300000000	-11.37305400000000	0.31100200000000	0.00000000000000	0.12787400000000	-54.98745200000000	780.08452100000000	-60.12790700000000	0.08367700000000	0.00000000000000	-0.09364400000000	0.00000000000000	-8.60821400000000	0.00000000000000	0.00000000000000	-18.33771300000000	0.00000000000000	
22.59657800000000	4.44805000000000	132.00640200000001	-10.86616000000000	0.31338800000000	0.00000000000000	0.12823800000000	-55.71463400000000	776.02909999999997	-59.74389500000000	0.08289500000000	0.00000000000000	-0.09353900000000	0.00000000000000	-8.53354100000000	0.00000000000000	0.00000000000000	-18.31161400000000	0.00000000000000	
22.59824400000000	5.47573000000000	138.56828500000000	-10.31880300000000	0.31560200000000	0.00000000000000	0.12858800000000	-56.43546000000000	771.77769499999999	-59.32564900000000	0.08211800000000	0.00000000000000	-0.09343100000000	0.00000000000000	-8.43968700000000	0.00000000000000	0.00000000000000	-18.28339700000000	0.00000000000000	
22.59991700000000	6.53956900000000	145.28846500000000	-9.73698300000000	0.31766000000000	0.00000000000000	0.12892500000000	-57.14825000000000	767.32782899999995	-58.87317800000000	0.08134600000000	0.00000000000000	-0.09332000000000	0.00000000000000	-8.33025700000000	0.00000000000000	0.00000000000000	-18.25285400000000	0.00000000000000	
22.60157900000000	7.63744200000000	152.17723699999999	-9.12395100000000	0.31957300000000	0.00000000000000	0.12925200000000	-57.85126900000000	762.67721300000005	-58.38656800000000	0.08058000000000	0.00000000000000	-0.09320500000000	0.00000000000000	-8.20724400000000	0.00000000000000	0.00000000000000	-18.21976700000000	0.00000000000000	
22.60324700000000	8.76821500000000	159.23659799999999	-8.48056700000000	0.32135200000000	0.00000000000000	0.12956700000000	-58.54273400000000	757.82376399999998	-57.86598700000000	0.07982000000000	0.00000000000000	-0.09308700000000	0.00000000000000	-8.07119400000000	0.00000000000000	0.00000000000000	-18.18391300000000	0.00000000000000	
22.60490800000000	9.93149000000000	166.46128999999999	-7.80576100000000	0.32300700000000	0.00000000000000	0.12987200000000	-59.22081700000000	752.76561900000002	-57.31168400000000	0.07906500000000	0.00000000000000	-0.09296400000000	0.00000000000000	-7.92146400000000	0.00000000000000	0.00000000000000	-18.14506000000000	0.00000000000000	
22.60657200000000	11.12733800000000	173.84015900000000	-7.09706800000000	0.32454500000000	0.00000000000000	0.13016800000000	-59.88365100000000	747.50115100000005	-56.72398600000000	0.07831600000000	0.00000000000000	-0.09283900000000	0.00000000000000	-7.75651700000000	0.00000000000000	0.00000000000000	-18.10297200000000	0.00000000000000	
22.60824200000000	12.35603300000000	181.35768700000000	-6.35116900000000	0.32597300000000	0.00000000000000	0.13045400000000	-60.52933400000000	742.02898300000004	-56.10330200000000	0.07757300000000	0.00000000000000	-0.09271000000000	0.00000000000000	-7.57423700000000	0.00000000000000	0.00000000000000	-18.05740900000000	0.00000000000000	
22.60991700000000	13.61781900000000	188.99553200000000	-5.56439300000000	0.32729900000000	0.00000000000000	0.13073200000000	-61.15593600000000	736.34800700000005	-55.45012100000000	0.07683700000000	0.00000000000000	-0.09257700000000	0.00000000000000	-7.37223200000000	0.00000000000000	0.00000000000000	-18.00812700000000	0.00000000000000	
22.61157200000000	14.91271300000000	196.73398000000000	-4.73317000000000	0.32852600000000	0.00000000000000	0.13100200000000	-61.76150200000000	730.45739300000002	-54.76501100000000	0.07610600000000	0.00000000000000	-0.09244000000000	0.00000000000000	-7.14810200000000	0.00000000000000	0.00000000000000	-17.95487600000000	0.00000000000000	
22.61324500000000	16.24035500000000	204.55320900000001	-3.85438300000000	0.32966100000000	0.00000000000000	0.13126300000000	-62.34406100000000	724.35661200000004	-54.04861800000000	0.07538100000000	0.00000000000000	-0.09230100000000	0.00000000000000	-6.89966700000000	0.00000000000000	0.00000000000000	-17.89740700000000	0.00000000000000	
22.61491300000000	17.59990400000000	212.43431500000000	-2.92564300000000	0.33070700000000	0.00000000000000	0.13151700000000	-62.90162900000000	718.04544099999998	-53.30166500000000	0.07466300000000	0.00000000000000	-0.09215700000000	0.00000000000000	-6.62513300000000	0.00000000000000	0.00000000000000	-17.83546800000000	0.00000000000000	
22.61657900000000	18.98999100000000	220.36006800000001	-1.94545300000000	0.33166700000000	0.00000000000000	0.13176400000000	-63.43221700000000	711.52398300000004	-52.52494900000000	0.07395000000000	0.00000000000000	-0.09201000000000	0.00000000000000	-6.32320700000000	0.00000000000000	0.00000000000000	-17.76880700000000	0.00000000000000	
22.61824300000000	20.40870300000000	228.31540000000001	-0.91329100000000	0.33254500000000	0.00000000000000	0.13200300000000	-63.93383600000000	704.79267300000004	-51.71934200000000	0.07324400000000	0.00000000000000	-0.09186000000000	0.00000000000000	-5.99315800000000	0.00000000000000	0.00000000000000	-17.69717300000000	0.00000000000000	
22.61990700000000	21.85360900000000	236.28764500000000	0.17039200000000	0.33334400000000	0.00000000000000	0.13223500000000	-64.40450300000001	697.85229100000004	-50.88578600000000	0.07254400000000	0.00000000000000	-0.09170600000000	0.00000000000000	-5.63482400000000	0.00000000000000	0.00000000000000	-17.62031500000000	0.00000000000000	
22.62157500000000	23.32181700000000	244.26655900000000	1.30423000000000	0.33406500000000	0.00000000000000	0.13246000000000	-64.84225000000001	690.70396800000003	-50.02529200000000	0.07184900000000	0.00000000000000	-0.09154800000000	0.00000000000000	-5.24858400000000	0.00000000000000	0.00000000000000	-17.53798700000000	0.00000000000000	
22.62324000000000	24.81004200000000	252.24416400000001	2.48605300000000	0.33471000000000	0.00000000000000	0.13267800000000	-65.24513000000000	683.34919000000002	-49.13893900000000	0.07116000000000	0.00000000000000	-0.09138700000000	0.00000000000000	-4.83530100000000	0.00000000000000	0.00000000000000	-17.44994400000000	0.00000000000000	
22.62490900000000	26.31468800000000	260.21447400000000	3.71302800000000	0.33528100000000	0.00000000000000	0.13288900000000	-65.61122200000000	675.78979900000002	-48.22786700000000	0.07047700000000	0.00000000000000	-0.09122300000000	0.00000000000000	-4.39624400000000	0.00000000000000	0.00000000000000	-17.35594700000000	0.00000000000000	
